<svg xmlns="http://www.w3.org/2000/svg" xmlns:xlink="http://www.w3.org/1999/xlink" width="154" height="170" viewBox="0 0 154 170">
    <defs>
        <ellipse id="a" cx="62.922" cy="63.157" rx="62.922" ry="63.157"/>
        <filter id="b" width="199.3%" height="149.5%" x="-49%" y="-24.7%" filterUnits="objectBoundingBox">
            <feOffset dy="2" in="SourceAlpha" result="shadowOffsetOuter1"/>
            <feGaussianBlur in="shadowOffsetOuter1" result="shadowBlurOuter1" stdDeviation="7"/>
            <feColorMatrix in="shadowBlurOuter1" result="shadowMatrixOuter1" values="0 0 0 0 0.824404762 0 0 0 0 0.824404762 0 0 0 0 0.824404762 0 0 0 0.5 0"/>
            <feMerge>
                <feMergeNode in="shadowMatrixOuter1"/>
                <feMergeNode in="SourceGraphic"/>
            </feMerge>
        </filter>
        <path id="d" d="M98.185 112.558a22.32 22.32 0 0 1-4.633.49c-3.548-.015-9.937-.792-10.745-5.894-.436-2.755 1.535-5.29 3.754-6.362 2.671-1.29 7.23-1.87 10.892-.606-1.188-3.995-.073-11.606-.073-12.537 0-.93-.017-1.15 0-1.139 4.562 2.805 6.502 6.806 8.974 12.265 1.01 2.23 1.47 4.794.752 7.237-1.124 3.83-5.13 5.741-8.921 6.546z"/>
        <filter id="c" width="180.9%" height="175.4%" x="-40.5%" y="-30.1%" filterUnits="objectBoundingBox">
            <feOffset dy="2" in="SourceAlpha" result="shadowOffsetOuter1"/>
            <feGaussianBlur in="shadowOffsetOuter1" result="shadowBlurOuter1" stdDeviation="3"/>
            <feColorMatrix in="shadowBlurOuter1" values="0 0 0 0 0.824404762 0 0 0 0 0.824404762 0 0 0 0 0.824404762 0 0 0 0.5 0"/>
        </filter>
        <path id="f" d="M54.127 113.048a22.362 22.362 0 0 1-4.632-.49c-3.792-.805-7.799-2.716-8.923-6.546-.718-2.443-.257-5.008.753-7.237 2.472-5.46 5.515-13.579 5.844-13.579.575 1.44 4.245 10.994 3.057 14.987 3.662-1.26 8.221-.682 10.893.609 2.218 1.073 4.19 3.608 3.753 6.362-.808 5.102-7.196 5.88-10.745 5.894z"/>
        <filter id="e" width="180.9%" height="171.8%" x="-40.5%" y="-28.7%" filterUnits="objectBoundingBox">
            <feOffset dy="2" in="SourceAlpha" result="shadowOffsetOuter1"/>
            <feGaussianBlur in="shadowOffsetOuter1" result="shadowBlurOuter1" stdDeviation="3"/>
            <feColorMatrix in="shadowBlurOuter1" values="0 0 0 0 0.824404762 0 0 0 0 0.824404762 0 0 0 0 0.824404762 0 0 0 0.5 0"/>
        </filter>
    </defs>
    <g fill="none" fill-rule="evenodd">
        <use fill="#EFFCF6" transform="translate(9.769 24.801)" xlink:href="#a"/>
        <path fill="#FFF3C4" d="M95.892 22.494c-4.225 5.738-6.88 8.743-7.968 9.018-.175 0 3.47 2.185 10.935 6.555 5.418-4.888 8.475-8.706 9.17-11.453-5.65-1.628-9.697-3.002-12.137-4.12z"/>
        <path fill="#C6F7E2" d="M132.152 40.951c-7.605 9.137-12.386 13.925-14.343 14.361-.315 0 6.246 3.48 19.684 10.44 9.752-7.785 15.254-13.865 16.507-18.24-10.173-2.593-17.455-4.78-21.848-6.56z"/>
        <path fill="#FFF3C4" d="M22.32 67.483c-5.432 7.437-8.847 11.334-10.245 11.69-.225 0 4.461 2.832 14.06 8.497 6.965-6.337 10.896-11.286 11.79-14.846-7.266-2.111-12.468-3.891-15.605-5.34z"/>
        <g filter="url(#b)" transform="translate(46.545 28.262)">
            <path fill="#FFF" d="M46.097 30.076V0S35.543 3.63 33.353 12.401c0 0 1.23.432-9.272 0-7.778-.01-7.157 0-7.157 0C15.624 6.331 11.113 1.533 5.262 0 1.754 34.525 0 60.253 0 77.183c0 15.748 2.164 43.63 5.262 46.248 3.099 2.618 14.286 2.557 16 0 1.336-1.996-1.955-11.28 0-10.901 2.842.55 5.43-.632 7.055 0 1.846.717 1.008 9.548 2.6 10.04 4.702 2.07 12.171 3.732 16.777-1.135 2.118-2.238 4.606-34.492 4.597-42.302-.005-4.569-.253-9.119-.648-13.504-1.588-17.654-5.546-32.65-5.546-35.553z"/>
            <path fill="#FFF" d="M41.373 30.57s20.108 2.211 21.249 3.669c1.14 1.458 3.096 20.69-21.249 21.709M47.694 108.434l-3.099-45.797L40.8 61.12v-3.443h1.612"/>
            <ellipse cx="21.261" cy="25.667" fill="#313131" rx="2.873" ry="4.326"/>
            <ellipse cx="33.328" cy="25.667" fill="#313131" rx="2.873" ry="4.326"/>
            <path fill="#313131" d="M44.056 34.42l15.602.002s-.944 10.971-8.597 9.038c-4.229-.767-7.235-4.646-7.005-9.04z"/>
        </g>
        <g fill-rule="nonzero">
            <use fill="#000" filter="url(#c)" xlink:href="#d"/>
            <use fill="#FBFBFB" xlink:href="#d"/>
        </g>
        <path fill="#FBE4EC" d="M92.17 108.434c9.18-11.92 14.654-18.072 16.425-18.459.285 0-5.651-3.075-17.809-9.226-11.122 10.726-17.25 18.021-18.383 21.887 9.204 2.292 15.793 4.225 19.767 5.798z"/>
        <path fill="#FBFBFB" fill-rule="nonzero" d="M98.185 112.558a22.32 22.32 0 0 1-4.633.49c-3.548-.015-9.937-.792-10.745-5.894-.436-2.755 1.535-5.29 3.754-6.362 2.671-1.29 7.23-1.87 10.892-.606 3.78-3.334 6.832-.856 6.85-.846 4.56 2.805-2.327 12.413-6.118 13.218z"/>
        <g fill-rule="nonzero">
            <use fill="#000" filter="url(#e)" xlink:href="#f"/>
            <use fill="#FBFBFB" xlink:href="#f"/>
        </g>
        <path fill="#FBE4EC" d="M22.64 28.262c6.88 8.075 11.206 12.305 12.977 12.691.285 0-5.65 3.076-17.809 9.227C8.985 43.3 4.006 37.926 2.873 34.06c9.204-2.291 15.793-4.224 19.768-5.798z"/>
        <path fill="#C6F7E2" d="M19.767 117.086c6.88 8.075 11.206 12.305 12.977 12.691.285 0-5.651 3.076-17.809 9.227C6.112 132.124 1.133 126.75 0 122.884c9.204-2.291 15.793-4.224 19.767-5.798z"/>
        <path fill="#B3ECFF" d="M65.624 0c-6.76 8.075-11.009 12.305-12.749 12.691-.28 0 5.552 3.076 17.497 9.227 8.668-6.88 13.56-12.254 14.673-16.12C76.002 3.507 69.529 1.575 65.625 0zM129.567 85.94c-4.104 4.887-6.684 7.448-7.74 7.682-.17 0 3.37 1.861 10.622 5.584 5.264-4.164 8.233-7.417 8.91-9.756-5.49-1.388-9.421-2.557-11.792-3.51z"/>
        <path fill="#FFF3C4" d="M123.315 119.97c-6.88 8.075-11.206 12.305-12.977 12.691-.285 0 5.651 3.076 17.809 9.227 8.823-6.88 13.802-12.254 14.935-16.12-9.204-2.291-15.793-4.224-19.767-5.798z"/>
    </g>
</svg>
