<svg xmlns="http://www.w3.org/2000/svg" width="18" height="34" viewBox="0 0 18 34">
    <g fill="none" fill-rule="evenodd">
        <path fill="#FFF" d="M13.119 7.91V.013s-2.924.953-3.53 3.257c0 0 .34.113-2.57 0-2.154-.003-1.982 0-1.982 0C4.677 1.674 3.427.414 1.806.012L0 33.977h17.056"/>
        <path fill="#FFF" d="M11.738 7.934s5.527.586 5.84.972c.314.386.851 5.482-5.84 5.752M13.544 28.591l-.857-12.082-1.05-.4v-.908h.446"/>
        <ellipse cx="6.265" cy="6.765" fill="#313131" rx="1" ry="1.172"/>
        <ellipse cx="9.555" cy="6.864" fill="#313131" rx="1" ry="1.172"/>
        <path fill="#313131" d="M12.47 9.053h4.308s-.26 2.886-2.374 2.377c-1.167-.201-1.997-1.222-1.934-2.377z"/>
    </g>
</svg>
