<svg xmlns="http://www.w3.org/2000/svg" width="32" height="32" viewBox="0 0 32 32">
    <g fill="#FBFBFB" fill-rule="nonzero">
        <path d="M18.58 31.73zM18.9 31.684c-.064.019-.128.036-.191.053.063-.017.127-.034.19-.053zM17.821 31.839zM18.128 31.807zM19.335 31.597zM20.417 31.328l-.137.06.137-.06zM20.09 31.417l-.149.062c.05-.02.1-.04.149-.062zM19.662 31.525c-.052.02-.105.038-.158.057.053-.02.106-.037.158-.057zM17.345 31.894zM32 15.969C32 7.15 24.835 0 16 0S0 7.15 0 15.969c0 8.818 7.165 15.969 16 15.969.094 0 .188-.002.281-.004V19.503h-3.437v-3.998h3.437v-2.943c0-3.412 2.087-5.27 5.137-5.27 1.46 0 2.716.11 3.082.158v3.566h-2.103c-1.66 0-1.98.787-1.98 1.942v2.547h3.967l-.517 3.998h-3.45V31.32C27.104 29.407 32 23.258 32 15.969zM17.057 31.913zM16.547 31.944z"/>
    </g>
</svg>
