<svg xmlns="http://www.w3.org/2000/svg" width="32" height="32" viewBox="0 0 32 32">
    <g fill="#FBFBFB" fill-rule="nonzero">
        <path d="M19.063 16a3.062 3.062 0 1 1-6.125 0 3.062 3.062 0 0 1 6.124 0z"/>
        <path d="M23.162 10.582a2.847 2.847 0 0 0-.687-1.057 2.845 2.845 0 0 0-1.057-.687c-.323-.126-.81-.275-1.705-.316-.97-.044-1.26-.054-3.713-.054-2.453 0-2.744.01-3.713.053-.895.041-1.382.191-1.705.317-.4.147-.76.382-1.057.687-.305.297-.54.657-.687 1.057-.126.323-.276.81-.317 1.706-.044.968-.053 1.259-.053 3.712 0 2.453.01 2.744.053 3.713.041.896.19 1.382.317 1.706.147.399.382.76.687 1.056.296.305.657.54 1.056.687.324.126.81.276 1.706.317.97.044 1.26.053 3.713.053 2.453 0 2.744-.01 3.712-.053.896-.041 1.383-.19 1.706-.317a3.042 3.042 0 0 0 1.744-1.743c.126-.324.276-.81.317-1.706.044-.97.053-1.26.053-3.713 0-2.453-.01-2.744-.053-3.712-.041-.896-.19-1.383-.317-1.706zM16 20.718a4.718 4.718 0 1 1 0-9.436 4.718 4.718 0 0 1 0 9.436zm4.904-8.52a1.103 1.103 0 1 1 0-2.205 1.103 1.103 0 0 1 0 2.205z"/>
        <path d="M16 0C7.165 0 0 7.165 0 16s7.165 16 16 16 16-7.165 16-16S24.835 0 16 0zm9.132 19.788c-.044.978-.2 1.646-.427 2.23a4.698 4.698 0 0 1-2.687 2.687c-.584.227-1.252.382-2.23.427-.98.045-1.293.055-3.788.055s-2.808-.01-3.788-.055c-.978-.045-1.646-.2-2.23-.427a4.501 4.501 0 0 1-1.627-1.06 4.503 4.503 0 0 1-1.06-1.627c-.227-.584-.382-1.252-.427-2.23-.045-.98-.056-1.293-.056-3.788s.011-2.808.056-3.788c.044-.978.2-1.646.427-2.23a4.5 4.5 0 0 1 1.06-1.627 4.5 4.5 0 0 1 1.627-1.06c.584-.227 1.252-.382 2.23-.427.98-.045 1.293-.056 3.788-.056s2.808.011 3.788.056c.978.045 1.646.2 2.23.427.613.23 1.169.592 1.628 1.06.467.459.829 1.014 1.06 1.627.226.584.382 1.252.426 2.23.045.98.055 1.293.055 3.788s-.01 2.808-.055 3.788z"/>
    </g>
</svg>
