<svg xmlns="http://www.w3.org/2000/svg" width="25" height="19" viewBox="0 0 25 19">
    <g fill="#FFF" fill-rule="nonzero">
        <path d="M0 3.203v12.61a3.165 3.165 0 0 0 3.162 3.154h10.214a3.165 3.165 0 0 0 3.162-3.155V13.77a.625.625 0 0 0-1.253 0v2.042c0 1.052-.86 1.91-1.914 1.91H3.16a1.917 1.917 0 0 1-1.914-1.91V3.203c0-1.052.86-1.91 1.915-1.91h10.214c1.054 0 1.914.858 1.914 1.91v2.042a.625.625 0 0 0 1.253 0V3.203A3.165 3.165 0 0 0 13.38.048H3.16A3.161 3.161 0 0 0 0 3.203z"/>
        <path d="M19.623 14.207a.62.62 0 0 0 .443.183.62.62 0 0 0 .443-.183l4.272-4.262a.618.618 0 0 0 0-.88L20.51 4.804a.622.622 0 1 0-.88.88l3.207 3.2H11.13a.625.625 0 1 0 0 1.25h11.701l-3.208 3.2a.612.612 0 0 0 0 .874z"/>
    </g>
</svg>
