<?xml version="1.0" encoding="UTF-8"?>
<svg width="110px" height="45px" viewBox="0 0 110 45" version="1.1" xmlns="http://www.w3.org/2000/svg" xmlns:xlink="http://www.w3.org/1999/xlink">
    <!-- Generator: Sketch 52.2 (67145) - http://www.bohemiancoding.com/sketch -->
    <title>logo-copy</title>
    <desc>Created with Sketch.</desc>
    <defs>
        <circle id="path-1" cx="21.9" cy="21.9" r="21.9"></circle>
        <circle id="path-3" cx="21.9" cy="21.9" r="21.9"></circle>
    </defs>
    <g id="Page-1" stroke="none" stroke-width="1" fill="none" fill-rule="evenodd">
        <g id="logo-copy" transform="translate(-3.000000, -20.000000)">
            <g id="Group" fill="#40C3F7" font-family="Poppins-Bold, Poppins" font-size="60" font-weight="bold">
                <text id="B">
                    <tspan x="0" y="63">B</tspan>
                </text>
                <text id="B">
                    <tspan x="75.18" y="63">B</tspan>
                </text>
            </g>
            <g id="Group" transform="translate(36.000000, 21.000000)">
                <g id="a-link" fill="#40C3F7">
                    <circle id="a" cx="21.9" cy="21.9" r="21.9"></circle>
                </g>
                <g id="Clipped">
                    <mask id="mask-2" fill="white">
                        <use xlink:href="#path-1"></use>
                    </mask>
                    <g id="a"></g>
                    <circle id="Oval" stroke="#40C3F7" stroke-width="9" mask="url(#mask-2)" cx="21.9" cy="21.9" r="17.4"></circle>
                </g>
                <g id="Clipped">
                    <mask id="mask-4" fill="white">
                        <use xlink:href="#path-3"></use>
                    </mask>
                    <g id="a"></g>
                    <g id="Group" mask="url(#mask-4)">
                        <g transform="translate(13.031000, 8.506000)">
                            <path d="M16.912,10.1 L16.912,0.015 C16.912,0.015 13.267,1.232 12.512,4.174 C12.512,4.174 12.936,4.318 9.31,4.174 C6.624,4.17 6.838,4.174 6.838,4.174 C6.38963184,2.13832512 4.83203274,0.529270317 2.812,0.015 L0.2,36.219 L18.652,36.474" id="Path" fill="#FFFFFF" fill-rule="evenodd"></path>
                            <path d="M15.19,10.13 C15.19,10.13 22.079,10.878 22.47,11.371 C22.86,11.864 23.53,18.371 15.19,18.715 M17.44,36.506 L16.373,21.079 L15.065,20.569 L15.065,19.409 L15.621,19.409" id="Shape" fill="#FFFFFF" fill-rule="nonzero"></path>
                            <ellipse id="Oval" fill="#313131" fill-rule="evenodd" cx="8.369" cy="8.638" rx="1" ry="1.496"></ellipse>
                            <ellipse id="Oval" fill="#313131" fill-rule="evenodd" cx="12.47" cy="8.764" rx="1" ry="1.496"></ellipse>
                            <path d="M16.103,11.559 L21.473,11.559 C21.473,11.559 21.147,15.244 18.513,14.595 C17.0579192,14.3373636 16.0237656,13.0345875 16.103,11.559 Z" id="Path" fill="#313131" fill-rule="evenodd"></path>
                        </g>
                    </g>
                </g>
            </g>
        </g>
    </g>
</svg>