<svg xmlns="http://www.w3.org/2000/svg" width="38" height="25" viewBox="0 0 38 25">
    <path fill="#40C3F7" fill-rule="nonzero" d="M37.406.73c.002-.015.007-.03.008-.045a.63.63 0 0 0-.006-.136c-.002-.012 0-.023-.002-.034a.603.603 0 0 0-.062-.177L37.327.31c-.002-.001-.002-.003-.002-.005 0-.001-.003-.002-.003-.004l-.013-.02a.608.608 0 0 0-.138-.14c-.011-.009-.025-.014-.038-.021a.603.603 0 0 0-.147-.071c-.023-.008-.046-.011-.07-.015a.614.614 0 0 0-.211-.007c-.016.002-.032 0-.048.003L.497 7.345a.616.616 0 0 0-.49.512.607.607 0 0 0 .325.625l10.361 5.35 1.817 9.87v.022a.561.561 0 0 0 .012.216.582.582 0 0 0 .068.163c.007.01.007.021.014.031.001.003.005.006.007.008.008.012.02.02.029.032a.63.63 0 0 0 .094.096c.006.004.01.01.016.015.01.006.02.008.03.014a.64.64 0 0 0 .118.06c.017.007.033.014.05.019a.636.636 0 0 0 .173.027h.001l.008-.001h.032a.625.625 0 0 0 .443-.191l6.902-4.504 7.226 4.598a.636.636 0 0 0 .536.067.618.618 0 0 0 .388-.369L37.376.841a.55.55 0 0 0 .02-.064c.003-.009.003-.018.005-.026a.216.216 0 0 0 .005-.022zM30.19 4.62L15.244 15.378c-.024.018-.043.04-.065.06l-.023.022a.619.619 0 0 0-.036.043c-.012.015-.02.03-.03.045a.618.618 0 0 0-.058.115c-.003.008-.008.014-.01.022 0 .002-.003.003-.004.006l-1.713 5.45-1.357-7.373L30.19 4.62zM14.27 22.313l1.698-5.49 2.644 1.682.756.482-2.57 1.676-2.528 1.65zm18.15-20.18l-21.164 10.61L2.45 8.196 32.42 2.133zm-4.663 20.735l-9.596-6.105-1.454-.925 18.785-13.52-7.735 20.55z"/>
</svg>
