<svg xmlns="http://www.w3.org/2000/svg" width="32" height="32" viewBox="0 0 32 32">
    <path fill="#FBFBFB" fill-rule="nonzero" d="M16 0C7.165 0 0 7.165 0 16s7.165 16 16 16 16-7.165 16-16S24.835 0 16 0zm7.305 12.475c.008.158.01.316.01.475 0 4.852-3.693 10.448-10.448 10.449-2.074 0-4.004-.608-5.63-1.65.288.034.58.05.877.05 1.72 0 3.304-.586 4.561-1.571a3.677 3.677 0 0 1-3.43-2.551 3.655 3.655 0 0 0 1.658-.063 3.673 3.673 0 0 1-2.946-3.6v-.047c.495.275 1.06.441 1.663.46a3.669 3.669 0 0 1-1.634-3.057c0-.673.182-1.304.497-1.846a10.427 10.427 0 0 0 7.57 3.837 3.673 3.673 0 0 1 6.258-3.35 7.366 7.366 0 0 0 2.332-.89 3.687 3.687 0 0 1-1.615 2.03 7.324 7.324 0 0 0 2.11-.578 7.463 7.463 0 0 1-1.833 1.902z"/>
</svg>
